<svg width="281" height="36" viewBox="0 0 281 36" fill="none" xmlns="http://www.w3.org/2000/svg">
<path d="M116.813 17.0526C116.704 17.0526 116.595 17.0526 112.883 17.0526C112.773 17.0526 112.555 17.0526 112.446 17.0526C110.699 17.0526 108.952 17.0526 108.516 17.0526C107.315 16.907 106.441 16.1789 106.441 15.1596C106.441 14.1402 107.424 13.4121 108.625 13.2665C109.498 13.2665 115.721 13.2665 119.87 13.2665C121.617 13.2665 123.036 11.9558 123.036 10.4996C123.036 8.89775 121.617 7.73281 119.87 7.73281C108.516 7.73281 108.406 7.73281 108.297 7.73281C103.821 8.02406 100.218 11.3733 100.218 15.3051C100.218 19.237 103.712 22.5863 108.188 22.8776C108.297 22.8776 108.406 22.8776 112.992 22.8776C113.101 22.8776 113.319 22.8776 113.428 22.8776C114.739 22.8776 116.049 22.8776 116.376 22.8776C117.577 23.0232 118.45 23.7513 118.45 24.7707C118.45 25.79 117.468 26.5182 116.267 26.6638C115.394 26.6638 117.577 26.6638 112.992 26.6638C111.245 26.6638 109.826 27.9744 109.826 29.4306C109.826 31.0325 111.245 32.1975 112.992 32.1975C112.992 32.1975 117.577 32.1975 117.795 32.1975C122.053 32.1975 124.674 28.5569 124.674 24.6251C124.892 20.6932 121.289 17.3439 116.813 17.0526Z" fill="url(#paint0_linear_38_1748)"/>
<path d="M69.2528 26.6638C68.4889 26.6638 62.8145 26.6638 62.1597 26.6638C58.3403 26.3726 55.394 23.4602 55.394 19.9652C55.394 16.4702 58.3403 13.5577 62.1597 13.2665C62.9236 13.2665 68.7072 13.2665 69.2528 13.2665C70.9988 13.2665 72.4174 11.9559 72.4174 10.4997C72.4174 9.04346 70.9988 7.73281 69.2528 7.73281C69.1437 7.73281 62.2688 7.73281 61.7232 7.73281C54.6301 8.16968 49.0648 13.5578 49.0648 19.9652C49.0648 23.0233 50.3743 26.0814 52.6659 28.2657C54.9575 30.5957 58.1221 31.9062 61.6141 32.1975C62.0506 32.1975 69.1437 32.1975 69.1437 32.1975C70.8897 32.1975 72.3083 30.8869 72.3083 29.4307C72.4174 27.8288 70.9988 26.6638 69.2528 26.6638Z" fill="url(#paint1_linear_38_1748)"/>
<path d="M83.7527 19.3252C82.1958 18.6021 80.3054 19.1806 79.5269 20.627L75.4124 28.1478C74.634 29.5941 75.3012 31.185 76.8581 31.9081C77.3029 32.0528 77.7477 32.1974 78.3037 32.1974C79.5269 32.1974 80.639 31.6188 81.195 30.6064L85.3095 23.0857C85.9767 21.6394 85.3095 20.0484 83.7527 19.3252Z" fill="url(#paint2_linear_38_1748)"/>
<path d="M102.212 28.1478L91.6481 9.34581C90.8697 7.89951 88.9792 7.32095 87.4224 8.0441C85.8655 8.76726 85.1983 10.3582 85.9767 11.8045L96.541 30.6064C97.0971 31.6189 98.2091 32.1974 99.4323 32.1974C99.8771 32.1974 100.433 32.0528 100.878 31.9082C102.324 31.185 102.991 29.4495 102.212 28.1478Z" fill="url(#paint3_linear_38_1748)"/>
<path d="M142.809 17.1338H139.362C137.583 17.1338 136.137 18.4355 136.137 19.8818C136.137 21.4727 137.583 22.6297 139.362 22.6297H142.809C144.588 22.6297 146.034 21.3281 146.034 19.8818C146.034 18.2908 144.588 17.1338 142.809 17.1338Z" fill="url(#paint4_linear_38_1748)"/>
<path d="M131.244 7.73281C129.465 7.73281 128.019 9.03452 128.019 10.4808V29.2828C128.019 30.8737 129.465 32.0307 131.244 32.0307C133.023 32.0307 134.469 30.7291 134.469 29.2828V10.4808C134.469 8.88989 133.023 7.73281 131.244 7.73281Z" fill="url(#paint5_linear_38_1748)"/>
<path d="M150.816 7.73278C149.036 7.73278 147.591 9.03449 147.591 10.4808V29.2828C147.591 30.8737 149.036 32.0307 150.816 32.0307C152.595 32.0307 154.04 30.7291 154.04 29.2828V10.4808C154.04 8.88986 152.595 7.73278 150.816 7.73278Z" fill="url(#paint6_linear_38_1748)"/>
<path d="M272.886 17.0203C271.131 17.0203 269.706 18.3256 269.706 19.7759C269.706 21.3713 271.131 22.5315 272.886 22.5315H276.285C278.039 22.5315 279.465 21.2263 279.465 19.7759C279.465 18.1806 278.039 17.0203 276.285 17.0203H272.886Z" fill="url(#paint7_linear_38_1748)"/>
<path d="M277.93 26.3023H267.622V13.1045H277.82C279.575 13.1045 281 11.7993 281 10.3489C281 8.89864 279.575 7.59332 277.82 7.59332H264.661C264.552 7.59332 264.552 7.59332 264.442 7.59332C262.688 7.59332 261.262 8.89864 261.262 10.3489V29.203C261.262 30.7983 262.688 31.9585 264.442 31.9585C264.661 31.9585 264.881 31.9585 265.1 31.9585H277.82C279.575 31.9585 281 30.6533 281 29.203C281 27.6076 279.574 26.3023 277.93 26.3023Z" fill="url(#paint8_linear_38_1748)"/>
<path d="M174.772 16.9389C174.664 16.9389 174.557 16.9389 170.897 16.9389C170.789 16.9389 170.574 16.9389 170.466 16.9389C168.743 16.9389 167.021 16.9389 166.59 16.9389C165.406 16.7929 164.545 16.0628 164.545 15.0406C164.545 14.0184 165.514 13.2883 166.698 13.1423C167.559 13.1423 173.696 13.1423 177.786 13.1423C179.509 13.1423 180.908 11.828 180.908 10.3678C180.908 8.76148 179.509 7.59332 177.786 7.59332C166.59 7.59332 166.483 7.59332 166.375 7.59332C161.961 7.88538 158.408 11.2439 158.408 15.1866C158.408 19.1293 161.854 22.4879 166.267 22.78C166.375 22.78 166.483 22.78 171.004 22.78C171.112 22.78 171.327 22.78 171.435 22.78C172.727 22.78 174.019 22.78 174.341 22.78C175.526 22.926 176.387 23.6561 176.387 24.6783C176.387 25.7005 175.418 26.4307 174.234 26.5767C173.373 26.5767 165.982 26.5767 161.46 26.5767C159.738 26.5767 158.338 27.8909 158.338 29.3512C158.338 30.9575 159.738 32.1257 161.46 32.1257C161.46 32.1257 175.526 32.1257 175.741 32.1257C179.94 32.1257 182.523 28.475 182.523 24.5323C182.739 20.5896 179.186 17.231 174.772 16.9389Z" fill="url(#paint9_linear_38_1748)"/>
<path d="M254.925 26.5767C254.136 26.5767 248.274 26.5767 247.598 26.5767C243.652 26.2847 240.609 23.3642 240.609 19.8596C240.609 16.3549 243.652 13.4344 247.598 13.1423C248.387 13.1423 254.362 13.1423 254.925 13.1423C256.729 13.1423 258.195 11.8281 258.195 10.3679C258.195 8.90759 256.729 7.59332 254.925 7.59332C254.813 7.59332 247.711 7.59332 247.147 7.59332C239.82 8.0314 234.07 13.4344 234.07 19.8596C234.07 22.9261 235.423 25.9927 237.791 28.1831C240.158 30.5195 243.427 31.8337 247.034 32.1257C247.485 32.1257 254.813 32.1257 254.813 32.1257C256.616 32.1257 258.082 30.8115 258.082 29.3513C258.195 27.745 256.729 26.5767 254.925 26.5767Z" fill="url(#paint10_linear_38_1748)"/>
<path d="M215.979 19.2179C214.444 18.4927 212.58 19.0729 211.812 20.5232L207.755 28.0648C206.988 29.5151 207.646 31.1104 209.181 31.8356C209.619 31.9806 210.058 32.1257 210.606 32.1257C211.812 32.1257 212.909 31.5455 213.457 30.5303L217.515 22.9887C218.172 21.5384 217.515 19.9431 215.979 19.2179Z" fill="url(#paint11_linear_38_1748)"/>
<path d="M234.182 28.0648L223.765 9.21082C222.997 7.76051 221.133 7.18035 219.598 7.9055C218.063 8.63066 217.405 10.226 218.172 11.6763L228.59 30.5303C229.138 31.5455 230.234 32.1257 231.441 32.1257C231.879 32.1257 232.428 31.9806 232.866 31.8356C234.292 31.1104 234.95 29.3701 234.182 28.0648Z" fill="url(#paint12_linear_38_1748)"/>
<path d="M201.49 7.59332C201.377 7.59332 197.658 7.59332 189.204 7.59332C187.4 7.59332 185.935 8.91546 185.935 10.3845C185.935 12.0004 187.4 13.1755 189.204 13.1755C192.134 13.1755 200.25 13.1755 201.039 13.1755C202.504 13.3224 203.519 14.3507 203.519 15.6728C203.519 16.9949 202.392 18.0233 200.926 18.1702C200.25 18.1702 192.022 18.1702 189.091 18.1702C187.288 18.1702 185.822 19.4923 185.822 20.9613V29.3346C185.822 30.9505 187.288 32.1257 189.091 32.1257C190.895 32.1257 192.36 30.8036 192.36 29.3346V23.7524C198.447 23.7524 201.152 23.7524 201.265 23.7524C206.111 23.4586 209.944 19.7861 209.944 15.526C210.057 11.4128 206.337 7.88712 201.49 7.59332Z" fill="url(#paint13_linear_38_1748)"/>
<path fill-rule="evenodd" clip-rule="evenodd" d="M21.665 33.2163C23.9562 33.1604 26.1835 32.5458 28.1592 31.465C31.5061 29.6332 34.1183 26.4596 35.0632 22.3717C35.2807 21.4273 35.3972 20.483 35.4169 19.553C32.3871 22.0629 28.8802 24.5404 25.2413 26.7654C23.7217 27.697 22.1823 28.583 20.6407 29.4082C19.7993 29.861 19.394 30.7981 19.6407 31.7147C19.8873 32.6313 20.7104 33.2407 21.665 33.2163ZM34.4418 14.1526C33.8018 12.5429 32.8636 11.062 31.6808 9.79388C36.1908 8.79488 37.309 10.5622 34.4418 14.1526ZM8.24184 24.3789C8.48034 24.9777 8.75779 25.5572 9.07766 26.1137C10.2925 28.2492 16.4014 26.7087 18.1228 26.0663L18.0839 26.0856L18.052 26.1011C16.1995 27.0021 14.3988 27.744 12.7593 28.2619C12.1427 28.4562 11.5716 28.6131 11.0458 28.729C6.50065 29.7507 5.36784 27.9804 8.24184 24.3789ZM7.62035 16.1563C7.20411 17.9658 7.15917 19.7724 7.44299 21.499C6.18857 22.5817 5.0423 23.6641 4.03207 24.7199C-2.8618 31.9436 -0.698167 35.3594 8.86103 32.3443C10.2618 31.9031 11.7413 31.3482 13.2715 30.7021C15.2312 29.8721 17.2752 28.8854 19.3297 27.791L19.3331 27.7873C23.442 25.595 27.6029 22.9576 31.2729 20.2097L31.2799 20.2058C32.6834 19.1569 34.0107 18.0929 35.2406 17.029C36.495 15.9462 37.6412 14.8639 38.6515 13.8081C45.5453 6.58439 43.3817 3.16862 33.8225 6.18368C32.4218 6.62489 30.9423 7.1798 29.4121 7.82594C27.9688 6.82476 26.3076 6.07465 24.4823 5.663C16.908 3.94779 9.35807 8.6437 7.62035 16.1563Z" fill="url(#paint14_linear_38_1748)"/>
<path d="M32.3339 2.69544C32.2771 1.15114 30.9756 -0.0554553 29.4285 0.00196748C27.8778 0.0595222 26.6684 1.35931 26.7287 2.90348C26.7854 4.44778 28.0869 5.65438 29.634 5.59695C31.1812 5.53953 32.3906 4.23974 32.3339 2.69544Z" fill="url(#paint15_linear_38_1748)"/>
<path d="M4.28843 19.2118C4.25842 18.395 3.56861 17.7555 2.75022 17.7859C1.93184 17.8162 1.29083 18.5051 1.32084 19.322C1.35085 20.1388 2.04066 20.7783 2.85904 20.7479C3.67742 20.7175 4.31844 20.0287 4.28843 19.2118Z" fill="url(#paint16_linear_38_1748)"/>
<path d="M13.5296 33.667C13.4895 32.5762 14.3427 31.6594 15.4354 31.6188C16.5282 31.5783 17.4463 32.4294 17.4864 33.5201C17.5264 34.6108 16.6733 35.5277 15.5805 35.5682C14.4878 35.6088 13.5697 34.7577 13.5296 33.667Z" fill="url(#paint17_linear_38_1748)"/>
<defs>
    <linearGradient id="paint0_linear_38_1748" x1="49.0648" y1="32.1975" x2="281" y2="32.1975" gradientUnits="userSpaceOnUse">
        <stop stop-color="#8311B9"/>
        <stop offset="1" stop-color="#11C7D2"/>
    </linearGradient>
    <linearGradient id="paint1_linear_38_1748" x1="49.0648" y1="32.1975" x2="281" y2="32.1975" gradientUnits="userSpaceOnUse">
        <stop stop-color="#8311B9"/>
        <stop offset="1" stop-color="#11C7D2"/>
    </linearGradient>
    <linearGradient id="paint2_linear_38_1748" x1="49.0648" y1="32.1975" x2="281" y2="32.1975" gradientUnits="userSpaceOnUse">
        <stop stop-color="#8311B9"/>
        <stop offset="1" stop-color="#11C7D2"/>
    </linearGradient>
    <linearGradient id="paint3_linear_38_1748" x1="49.0648" y1="32.1975" x2="281" y2="32.1975" gradientUnits="userSpaceOnUse">
        <stop stop-color="#8311B9"/>
        <stop offset="1" stop-color="#11C7D2"/>
    </linearGradient>
    <linearGradient id="paint4_linear_38_1748" x1="49.0648" y1="32.1975" x2="281" y2="32.1975" gradientUnits="userSpaceOnUse">
        <stop stop-color="#8311B9"/>
        <stop offset="1" stop-color="#11C7D2"/>
    </linearGradient>
    <linearGradient id="paint5_linear_38_1748" x1="49.0648" y1="32.1975" x2="281" y2="32.1975" gradientUnits="userSpaceOnUse">
        <stop stop-color="#8311B9"/>
        <stop offset="1" stop-color="#11C7D2"/>
    </linearGradient>
    <linearGradient id="paint6_linear_38_1748" x1="49.0648" y1="32.1975" x2="281" y2="32.1975" gradientUnits="userSpaceOnUse">
        <stop stop-color="#8311B9"/>
        <stop offset="1" stop-color="#11C7D2"/>
    </linearGradient>
    <linearGradient id="paint7_linear_38_1748" x1="49.0648" y1="32.1975" x2="281" y2="32.1975" gradientUnits="userSpaceOnUse">
        <stop stop-color="#8311B9"/>
        <stop offset="1" stop-color="#11C7D2"/>
    </linearGradient>
    <linearGradient id="paint8_linear_38_1748" x1="49.0648" y1="32.1975" x2="281" y2="32.1975" gradientUnits="userSpaceOnUse">
        <stop stop-color="#8311B9"/>
        <stop offset="1" stop-color="#11C7D2"/>
    </linearGradient>
    <linearGradient id="paint9_linear_38_1748" x1="49.0648" y1="32.1975" x2="281" y2="32.1975" gradientUnits="userSpaceOnUse">
        <stop stop-color="#8311B9"/>
        <stop offset="1" stop-color="#11C7D2"/>
    </linearGradient>
    <linearGradient id="paint10_linear_38_1748" x1="49.0648" y1="32.1975" x2="281" y2="32.1975" gradientUnits="userSpaceOnUse">
        <stop stop-color="#8311B9"/>
        <stop offset="1" stop-color="#11C7D2"/>
    </linearGradient>
    <linearGradient id="paint11_linear_38_1748" x1="49.0648" y1="32.1975" x2="281" y2="32.1975" gradientUnits="userSpaceOnUse">
        <stop stop-color="#8311B9"/>
        <stop offset="1" stop-color="#11C7D2"/>
    </linearGradient>
    <linearGradient id="paint12_linear_38_1748" x1="49.0648" y1="32.1975" x2="281" y2="32.1975" gradientUnits="userSpaceOnUse">
        <stop stop-color="#8311B9"/>
        <stop offset="1" stop-color="#11C7D2"/>
    </linearGradient>
    <linearGradient id="paint13_linear_38_1748" x1="49.0648" y1="32.1975" x2="281" y2="32.1975" gradientUnits="userSpaceOnUse">
        <stop stop-color="#8311B9"/>
        <stop offset="1" stop-color="#11C7D2"/>
    </linearGradient>
    <linearGradient id="paint14_linear_38_1748" x1="0" y1="35.5696" x2="42.6835" y2="35.5696" gradientUnits="userSpaceOnUse">
        <stop stop-color="#8311B9"/>
        <stop offset="1" stop-color="#11C7D2"/>
    </linearGradient>
    <linearGradient id="paint15_linear_38_1748" x1="0" y1="35.5696" x2="42.6835" y2="35.5696" gradientUnits="userSpaceOnUse">
        <stop stop-color="#8311B9"/>
        <stop offset="1" stop-color="#11C7D2"/>
    </linearGradient>
    <linearGradient id="paint16_linear_38_1748" x1="0" y1="35.5696" x2="42.6835" y2="35.5696" gradientUnits="userSpaceOnUse">
        <stop stop-color="#8311B9"/>
        <stop offset="1" stop-color="#11C7D2"/>
    </linearGradient>
    <linearGradient id="paint17_linear_38_1748" x1="0" y1="35.5696" x2="42.6835" y2="35.5696" gradientUnits="userSpaceOnUse">
        <stop stop-color="#8311B9"/>
        <stop offset="1" stop-color="#11C7D2"/>
    </linearGradient>
</defs>
</svg>