<?xml version="1.0" encoding="utf-8"?>
<!-- Generator: Adobe Illustrator 23.0.6, SVG Export Plug-In . SVG Version: 6.00 Build 0)  -->
<svg version="1.1" id="Isolation_Mode" xmlns="http://www.w3.org/2000/svg" xmlns:xlink="http://www.w3.org/1999/xlink" x="0px"
	 y="0px" viewBox="0 0 345 77.3" style="enable-background:new 0 0 345 77.3;" xml:space="preserve">
<style type="text/css">
	.st0{fill:#00B3B0;}
	.st1{fill:#FFCF10;}
	.st2{fill:#00B3B1;}
</style>
<g>
	<g>
		<g>
			<circle class="st0" cx="52" cy="60" r="4.6"/>
			<path class="st1" d="M65.6,55.7L48.5,38.8c-0.1-0.1-0.1-0.1-0.2-0.2c-1.1-0.9-2.7-0.8-3.7,0.2c-1,1.1-1,2.8,0,3.8l17.1,16.9
				c0.1,0.1,0.1,0.1,0.2,0.2c1.1,0.9,2.7,0.8,3.7-0.2C66.7,58.5,66.7,56.7,65.6,55.7z"/>
		</g>
		<g>
			<circle class="st0" cx="62" cy="35.4" r="4.6"/>
			<path class="st1" d="M65,21.5l-23.2,6.4c-0.1,0-0.2,0-0.2,0.1c-1.3,0.5-2,1.9-1.7,3.3c0.4,1.4,1.9,2.3,3.3,1.9l23.2-6.4
				c0.1,0,0.2,0,0.2-0.1c1.3-0.5,2-1.9,1.7-3.3C67.9,21.9,66.4,21.1,65,21.5z"/>
		</g>
		<g>
			<circle class="st0" cx="45.6" cy="14.4" r="4.6"/>
			<path class="st1" d="M35,4.9l-6,23.3c0,0.1,0,0.2-0.1,0.2c-0.2,1.4,0.6,2.7,2,3.1c1.4,0.4,2.9-0.5,3.3-2l6-23.3
				c0-0.1,0-0.2,0.1-0.2c0.2-1.4-0.6-2.7-2-3.1C36.9,2.5,35.4,3.4,35,4.9z"/>
		</g>
		<g>
			<circle class="st0" cx="19.2" cy="18.2" r="4.6"/>
			<path class="st1" d="M5.7,22.5l17.1,16.9c0.1,0.1,0.1,0.1,0.2,0.2c1.1,0.9,2.7,0.8,3.7-0.2c1-1.1,1-2.8,0-3.8L9.5,18.7
				c-0.1-0.1-0.1-0.1-0.2-0.2c-1.1-0.9-2.7-0.8-3.7,0.2C4.6,19.8,4.6,21.5,5.7,22.5z"/>
		</g>
		<g>
			<circle class="st0" cx="9.3" cy="42.9" r="4.6"/>
			<path class="st1" d="M6.3,56.8l23.2-6.4c0.1,0,0.2,0,0.2-0.1c1.3-0.5,2-1.9,1.7-3.3c-0.4-1.4-1.9-2.3-3.3-1.9L4.8,51.5
				c-0.1,0-0.2,0-0.2,0.1c-1.3,0.5-2,1.9-1.7,3.3C3.3,56.3,4.8,57.2,6.3,56.8z"/>
		</g>
		<g>
			<circle class="st0" cx="25.7" cy="63.8" r="4.6"/>
			<path class="st1" d="M36.3,73.4l6-23.3c0-0.1,0-0.2,0.1-0.2c0.2-1.4-0.6-2.7-2-3.1c-1.4-0.4-2.9,0.5-3.3,2L31,72
				c0,0.1,0,0.2-0.1,0.2c-0.2,1.4,0.6,2.7,2,3.1C34.4,75.7,35.9,74.8,36.3,73.4z"/>
		</g>
	</g>
</g>
<g>
	<g>
		<path class="st2" d="M112.2,27.4c0-2.1,1.6-3.8,3.8-3.8c2.1,0,3.8,1.7,3.8,3.8v26.1c0,2.1-1.7,3.8-3.8,3.8c-2.1,0-3.8-1.6-3.8-3.8
			V27.4z"/>
		<path class="st2" d="M126.5,27.4c0-2.1,1.6-3.8,3.8-3.8c2.1,0,3.8,1.7,3.8,3.8V29c2.1-3.1,5.2-5.8,10.3-5.8
			c7.4,0,11.8,5,11.8,12.6v17.6c0,2.1-1.6,3.8-3.8,3.8c-2.1,0-3.8-1.6-3.8-3.8V38.2c0-5.1-2.6-8.1-7.1-8.1c-4.4,0-7.4,3.1-7.4,8.2
			v15.2c0,2.1-1.7,3.8-3.8,3.8c-2.1,0-3.8-1.6-3.8-3.8V27.4z"/>
		<path class="st2" d="M162.2,14.8c0-2.1,1.6-3.8,3.8-3.8c2.1,0,3.8,1.6,3.8,3.8v14.7c2.4-3.4,5.9-6.2,11.3-6.2
			c7.8,0,15.3,6.1,15.3,17.1v0.1c0,10.9-7.5,17.1-15.3,17.1c-5.5,0-8.9-2.8-11.3-5.8v1.7c0,2.1-1.7,3.8-3.8,3.8
			c-2.1,0-3.8-1.7-3.8-3.8V14.8z M188.6,40.5v-0.1c0-6.4-4.3-10.6-9.4-10.6c-5.1,0-9.6,4.3-9.6,10.6v0.1c0,6.3,4.5,10.6,9.6,10.6
			C184.4,51.1,188.6,47,188.6,40.5z"/>
		<path class="st2" d="M201,27.4c0-2.1,1.6-3.8,3.8-3.8c2.1,0,3.8,1.7,3.8,3.8v3.4c1.7-4.1,5-7.3,8.3-7.3c2.4,0,3.8,1.6,3.8,3.8
			c0,2-1.3,3.3-3,3.6c-5.4,0.9-9.1,5.1-9.1,12.9v9.8c0,2.1-1.7,3.8-3.8,3.8c-2.1,0-3.8-1.6-3.8-3.8V27.4z"/>
		<path class="st2" d="M220.7,40.6v-0.1c0-9.4,7.5-17.3,17.6-17.3c10.1,0,17.6,7.7,17.6,17.1v0.1c0,9.4-7.5,17.2-17.7,17.2
			C228.2,57.7,220.7,50,220.7,40.6z M248.4,40.6v-0.1c0-5.8-4.2-10.6-10.1-10.6c-6.1,0-9.9,4.8-9.9,10.5v0.1
			c0,5.8,4.2,10.6,10.1,10.6C244.5,51.1,248.4,46.3,248.4,40.6z"/>
		<path class="st1" d="M262.9,48c2.5,0,4.4,1.9,4.4,4.3V53c0,2.4-1.9,4.3-4.4,4.3c-2.6,0-4.4-1.9-4.4-4.3v-0.6
			C258.5,49.9,260.4,48,262.9,48z"/>
		<path class="st1" d="M272.9,27.4c0-2.1,1.6-3.8,3.8-3.8c2.1,0,3.8,1.7,3.8,3.8v2.1c2.4-3.4,5.9-6.2,11.3-6.2
			c7.8,0,15.3,6.1,15.3,17.1v0.1c0,10.9-7.5,17.1-15.3,17.1c-5.5,0-8.9-2.8-11.3-5.8v11.7c0,2.1-1.7,3.8-3.8,3.8
			c-2.1,0-3.8-1.6-3.8-3.8V27.4z M299.4,40.5v-0.1c0-6.4-4.3-10.6-9.4-10.6c-5.1,0-9.6,4.3-9.6,10.6v0.1c0,6.3,4.5,10.6,9.6,10.6
			C295.1,51.1,299.4,47,299.4,40.5z"/>
		<path class="st1" d="M311.8,14.8c0-2.1,1.6-3.8,3.8-3.8c2.1,0,3.8,1.7,3.8,3.8V29c2.1-3.1,5.2-5.8,10.3-5.8
			c7.4,0,11.8,5,11.8,12.6v17.6c0,2.1-1.6,3.8-3.8,3.8c-2.1,0-3.8-1.6-3.8-3.8V38.2c0-5.1-2.6-8.1-7.1-8.1c-4.4,0-7.4,3.1-7.4,8.2
			v15.2c0,2.1-1.7,3.8-3.8,3.8c-2.1,0-3.8-1.6-3.8-3.8V14.8z"/>
	</g>
</g>
<path class="st2" d="M90.3,30.1h-1.3c-1.8,0-3.2-1.4-3.2-3.1c0-1.7,1.4-3.2,3.2-3.2h1.3v-2.4c0-3.6,0.9-6.4,2.7-8.1
	c1.7-1.8,4.2-2.6,7.4-2.6c1.5,0,2.8,0.1,3.8,0.3c1.4,0.2,2.6,1.4,2.6,3.1c0,1.7-1.4,3.2-3.2,3.1c-0.4-0.1-1.1-0.1-1.6-0.1
	c-2.9,0-4.4,1.6-4.4,5v1.8h5.9c1.8,0,3.2,1.4,3.2,3.1c0,1.7-1.4,3.1-3.2,3.1h-5.8v23.1c0,2.1-1.7,3.8-3.8,3.8
	c-2.1,0-3.8-1.7-3.8-3.8V30.1z"/>
<path class="st2" d="M111.7,14.2c0-2.2,1.9-3.7,4.3-3.7s4.3,1.4,4.3,3.7v0.4c0,2.3-1.9,3.8-4.3,3.8s-4.3-1.5-4.3-3.8V14.2z"/>
</svg>
