<svg width="140" height="47" viewBox="0 0 140 47" fill="none" xmlns="http://www.w3.org/2000/svg">
<path d="M7.52149 25.2394C7.52149 27.8873 7.52149 30.2817 7.52149 32.676C7.52149 33.4929 7.46516 34.2817 7.35248 35.0986C7.1553 36.4507 6.02854 37.4084 4.64825 37.4648C3.1553 37.5211 1.9722 36.7324 1.63417 35.3803C1.52149 34.9577 1.46516 34.4789 1.46516 34.0282C1.46516 27.2394 1.43699 20.4507 1.46516 13.662C1.46516 11.4929 2.62009 10.1972 4.45107 10.1972C6.02854 10.1972 7.18347 11.1831 7.40882 12.7605C7.71868 15.1549 7.49332 17.5493 7.54966 19.9436C7.54966 20.169 7.54966 20.4225 7.54966 20.7887C8.11304 20.5352 8.36656 20.0845 8.67642 19.7465C10.8454 17.2958 13.0145 14.8451 15.1835 12.4225C15.6342 11.9155 16.0849 11.4366 16.5919 11.0141C17.8595 9.94365 19.3243 9.91548 20.4511 10.8732C21.5778 11.831 21.8032 13.4084 20.9863 14.7887C20.6764 15.3521 20.2257 15.8028 19.775 16.2535C17.8032 18.2535 15.8595 20.2817 13.8595 22.2535C13.3806 22.7324 13.3806 23.0141 13.8595 23.4929C16.5356 26.2817 19.1553 29.1267 21.8032 31.9436C22.4792 32.676 23.0145 33.4648 23.0426 34.5352C23.0708 36.9014 20.9581 38.2535 18.8173 37.1831C18.2539 36.9014 17.775 36.4789 17.3525 36C14.3666 32.7042 11.4088 29.4648 8.45107 26.2253C8.22572 25.9436 7.9722 25.7183 7.52149 25.2394Z" fill="#047EEF"/>
<path d="M60.5921 23.0423C62.1977 21.5211 63.8597 19.9718 65.5216 18.4225C65.9723 18 66.4231 17.5211 66.9301 17.1549C68.254 16.169 69.6625 16.3099 70.7047 17.4648C71.7188 18.5916 71.7188 20.1127 70.6202 21.2676C69.409 22.5352 68.1414 23.7465 66.8456 24.9577C66.3385 25.4366 66.3385 25.7183 66.7611 26.2254C68.254 28 69.6907 29.831 71.1273 31.662C71.5498 32.1972 71.9442 32.7324 72.254 33.3239C72.8738 34.507 72.6202 35.831 71.6343 36.6761C70.5639 37.6056 69.2681 37.6901 68.1414 36.9296C67.6625 36.6197 67.2963 36.1972 66.9583 35.7465C64.9301 33.0986 62.8738 30.4789 60.6202 27.6056C60.6202 29.4366 60.6202 30.9577 60.6202 32.4789C60.6202 33.3803 60.6766 34.3099 60.4512 35.2113C60.1414 36.5352 58.9583 37.493 57.6343 37.4648C56.2822 37.4366 55.1554 36.4789 54.9019 35.1268C54.7892 34.5352 54.7329 33.9437 54.7329 33.3521C54.7329 26.2535 54.7329 19.1268 54.7329 12.0282C54.7329 11.493 54.7892 10.9859 54.8738 10.4507C55.0991 8.92958 56.1977 7.94366 57.6625 7.94366C59.0709 7.94366 60.1695 8.87324 60.4512 10.3099C60.5639 10.9014 60.6202 11.493 60.6202 12.0845C60.5921 15.7465 60.5921 19.4648 60.5921 23.0423Z" fill="#047EEF"/>
<path d="M33.0143 28.338C34.0002 25.3803 34.9298 22.6479 35.8594 19.9437C36.0565 19.3803 36.2537 18.8169 36.5072 18.2817C37.2396 16.7606 38.6762 16.2254 40.1974 16.7888C41.634 17.324 42.3946 18.7324 42.0002 20.2535C41.5213 22.1409 40.6762 23.8592 39.972 25.662C38.8171 28.5916 37.634 31.5493 36.4509 34.4789C35.8312 36 35.0424 37.4085 33.0988 37.3803C31.2115 37.3521 30.2255 36.1409 29.6058 34.5071C28.5072 31.7183 27.3805 28.9578 26.3101 26.1972C25.5777 24.338 24.7889 22.5071 24.141 20.5916C23.465 18.5916 24.4509 17.0141 26.4227 16.6197C27.8593 16.338 29.0706 17.0704 29.6903 18.6761C30.3101 20.3099 30.8453 22 31.4086 23.662C31.9439 25.1268 32.4509 26.6197 33.0143 28.338Z" fill="#047EEF"/>
<path d="M44.986 27.0704C44.986 24.7606 44.9579 22.4225 45.0142 20.1127C45.0424 18.8733 45.2677 17.6902 46.5635 16.9859C48.1691 16.1409 50.0846 16.8733 50.5917 18.6197C50.7325 19.1268 50.8734 19.6338 50.8734 20.169C50.8734 24.7324 50.8734 29.324 50.8452 33.8873C50.8452 35.0986 50.5353 36.2535 49.3804 36.9296C47.3241 38.1127 45.1269 36.7606 45.0142 34.2254C44.9579 33.0423 44.986 31.831 44.986 30.6479C44.986 29.4648 44.986 28.2817 44.986 27.0704Z" fill="#F39301"/>
<path d="M51.3245 11.2957C51.3245 13.2394 49.9442 14.5634 48.0006 14.676C45.9161 14.7887 44.564 12.7887 44.564 11.3239C44.564 9.5211 46.1414 7.88729 47.9724 7.88729C49.8597 7.85912 51.2964 9.35208 51.3245 11.2957Z" fill="#F39303"/>
<path d="M92.8455 19.5493C92.8455 18.338 92.3666 17.3521 91.1553 16.8732C90.0286 16.4225 88.9582 16.5634 88.0004 17.3803C87.4934 17.831 87.2398 18.3944 87.2117 19.0422V28.338C87.2117 28.338 87.2117 31.9155 83.8877 31.9155C80.5638 31.9155 80.5638 28.338 80.5638 28.338V19.0422C80.5356 18.3944 80.2821 17.831 79.7751 17.3803C78.8455 16.5634 77.7469 16.4225 76.6201 16.8732C75.437 17.3521 74.9582 18.338 74.93 19.5493C74.9018 23.1268 74.8736 26.7324 74.93 30.3099C74.9582 31.9718 75.606 33.4366 76.8173 34.6479C78.8173 36.676 81.2399 37.5211 83.8596 37.493C86.4793 37.5211 88.8737 36.676 90.9018 34.6479C92.1131 33.4366 92.761 31.9718 92.7891 30.3099C92.8736 26.7324 92.8455 23.1549 92.8455 19.5493Z" fill="#047EEF"/>
<path d="M129.465 32.1972C128.479 32.4507 127.747 32.1127 127.071 31.5493C126.169 30.8169 125.296 30.0563 124.423 29.2958C123.183 28.2817 121.859 27.4366 120.169 27.493C119.747 27.493 119.409 27.5493 119.127 27.0423C118.845 26.4789 119.183 26.2817 119.437 25.9718C120.902 24.2254 121.916 22.2817 121.859 19.9718C121.775 17.2113 119.747 16 117.296 17.1549C116.986 17.2958 116.648 17.831 116.338 17.4085C116.085 17.0704 116.395 16.6197 116.676 16.2817C116.789 16.1408 116.902 16 116.986 15.8592C118.451 13.9437 118.507 11.9437 117.24 9.88732C116.395 8.53521 115.381 7.32394 114.338 6.14085C114.113 5.88732 113.944 5.71831 114.197 5.26761C115.043 3.80282 114.874 2.70423 113.831 1.88732C112.676 0.985916 111.24 1.07042 110.113 2.16901C109.775 2.50704 109.437 2.56338 109.014 2.53521C107.352 2.42254 105.69 2.56338 104.141 3.1831C102.902 3.69014 101.859 3.83099 100.845 2.84507C100.676 2.67606 100.423 2.61972 100.169 2.53521C98.62 1.91549 97.0989 2.3662 96.0566 3.71831C95.0144 5.07042 95.0426 6.45071 96.113 7.85916C96.3102 8.11268 96.5073 8.25352 96.2257 8.61972C91.1834 14.5634 90.2538 23.8592 91.4651 29.3239C93.1271 36.8451 98.5918 39.8028 100.733 40.9014C102.507 41.8028 104.395 42.4789 106.254 43.2113C110.507 44.8732 114.986 45.3239 119.521 44.9296C123.127 44.6197 124.197 43.4648 124.845 39.6901C124.874 39.4648 124.874 39.3239 125.155 39.2676C128.197 38.5352 129.324 35.9437 130.564 33.5493C131.014 32.6761 130.395 31.9437 129.465 32.1972ZM101.212 38.8169C98.2538 37.3521 96.0003 35.3803 94.5073 32.4789C96.789 34.4789 99.4369 35.3239 102.507 35.2113C101.719 36.3099 101.099 37.3521 101.212 38.8169ZM97.9721 22.3099C96.451 21.5211 95.1271 20.5352 93.8876 19.3521C93.5496 19.0423 93.3806 18.7606 93.4933 18.2535C94.2256 15.1549 95.3524 12.2254 97.2961 9.66197C97.5496 9.32395 97.8031 8.98592 98.3102 9.12676C98.9862 9.29578 99.4651 9.01409 99.775 8.39437C101.662 4.76056 104.958 4 108.648 4C109.634 4 110.536 4.30986 111.24 4.98592C112.592 6.28169 113.888 7.60563 115.437 9.09859C114.705 8.92958 114.226 8.56338 113.831 8.95775C113.409 9.35211 113.606 9.88733 113.775 10.338C114.226 11.5493 114.845 12.6479 116.085 13.2113C116.564 13.4366 116.451 13.6338 116.366 14.0282C116.282 14.4507 116.085 14.4789 115.719 14.4225C115.043 14.2817 114.395 14.4507 113.775 14.7606C113.352 14.9859 112.986 15.2958 113.014 15.8028C113.043 16.3662 113.578 16.4789 114 16.6197C114.282 16.7042 114.62 16.7042 115.127 16.7324C113.55 18.6761 111.606 17.493 109.831 17.5493C110.057 18.4225 110.902 18.338 111.465 18.7606C107.127 20.2535 102.958 21.2113 99.9721 16.169C99.5778 18.7887 102.648 20.7887 107.55 21.3803C104.986 23.8028 101.493 24.1127 97.9721 22.3099ZM120.536 35.9437C117.409 36.2535 114.395 35.831 111.493 34.5634C110.705 34.2254 109.888 33.8873 108.986 33.5211C110.648 32.6479 112.141 31.6056 113.409 30.3099C114.676 28.9859 115.719 27.493 116.564 25.5775C117.634 28.5352 119.381 30.7606 121.437 32.7606C121.634 32.9577 121.775 33.2113 121.888 33.4648C122.62 34.9859 122.197 35.7747 120.536 35.9437Z" fill="#0A0104"/>
<path d="M122.902 5.66196L125.522 7.63379L126.198 11.2394L127.944 9.74646L131.155 12.2817C133.578 8.73238 136.451 4.73238 139.015 1.01407C133.578 2.56336 122.902 5.66196 122.902 5.66196ZM130.479 10.9577L127.043 8.53519L126.282 10.7324L126.169 7.91548L137.606 1.88731L130.479 10.9577Z" fill="#090204"/>
<path d="M110.479 11.2676C110.395 12.507 110.057 13.6901 109.184 14.6761C108.423 15.5493 107.353 15.7183 106.451 15.1549C105.634 14.6479 105.465 13.8028 105.944 12.6479C106.395 11.5493 107.155 10.6761 108.113 10C108.62 9.63381 109.155 9.15493 109.831 9.52113C110.451 9.88733 110.451 10.5916 110.479 11.2676Z" fill="#0A0205"/>
</svg>
