<svg width="314" height="56" viewBox="0 0 314 56" fill="none" xmlns="http://www.w3.org/2000/svg">
<path d="M5.7 53.7C4.05 53.7 2.675 53.25 1.575 52.35C0.525001 51.45 0 50.125 0 48.375V5.325C0 3.575 0.525001 2.25 1.575 1.35C2.675 0.45 4.05 0 5.7 0C7.3 0 8.625 0.45 9.675 1.35C10.775 2.25 11.325 3.575 11.325 5.325V48.375C11.325 50.125 10.775 51.45 9.675 52.35C8.625 53.25 7.3 53.7 5.7 53.7Z" fill="black"/>
<path d="M32.8201 53.85C28.9201 53.85 25.4951 53.075 22.5451 51.525C19.5951 49.925 17.3201 47.7 15.7201 44.85C14.1201 41.95 13.3201 38.55 13.3201 34.65C13.3201 30.75 14.1201 27.375 15.7201 24.525C17.3201 21.625 19.5951 19.4 22.5451 17.85C25.4951 16.3 28.9201 15.525 32.8201 15.525C36.7201 15.525 40.1451 16.3 43.0951 17.85C46.0451 19.4 48.3201 21.625 49.9201 24.525C51.5201 27.375 52.3201 30.75 52.3201 34.65C52.3201 38.55 51.5201 41.95 49.9201 44.85C48.3201 47.7 46.0451 49.925 43.0951 51.525C40.1451 53.075 36.7201 53.85 32.8201 53.85ZM32.8201 45.225C38.3201 45.225 41.0701 41.7 41.0701 34.65C41.0701 31.1 40.3451 28.45 38.8951 26.7C37.4951 24.95 35.4701 24.075 32.8201 24.075C27.3201 24.075 24.5701 27.6 24.5701 34.65C24.5701 41.7 27.3201 45.225 32.8201 45.225Z" fill="black"/>
<path d="M70.9119 15.525C76.3119 15.525 80.3119 16.85 82.9119 19.5C85.5119 22.1 86.8119 26.1 86.8119 31.5V48.45C86.8119 50.1 86.3369 51.4 85.3869 52.35C84.4369 53.25 83.1119 53.7 81.4119 53.7C79.8119 53.7 78.5119 53.225 77.5119 52.275C76.5619 51.275 76.0869 50 76.0869 48.45V47.925C75.3369 49.775 74.0869 51.225 72.3369 52.275C70.5869 53.325 68.5369 53.85 66.1869 53.85C63.6869 53.85 61.4119 53.35 59.3619 52.35C57.3619 51.35 55.7619 49.95 54.5619 48.15C53.4119 46.35 52.8369 44.35 52.8369 42.15C52.8369 39.45 53.5119 37.325 54.8619 35.775C56.2619 34.225 58.4869 33.1 61.5369 32.4C64.5869 31.7 68.7619 31.35 74.0619 31.35H76.0119V30C76.0119 27.9 75.5369 26.375 74.5869 25.425C73.6869 24.475 72.1619 24 70.0119 24C67.8619 24 64.7619 24.75 60.7119 26.25C59.5619 26.8 58.5869 27.075 57.7869 27.075C56.6869 27.075 55.8119 26.7 55.1619 25.95C54.5119 25.15 54.1869 24.125 54.1869 22.875C54.1869 21.875 54.4119 21.05 54.8619 20.4C55.3119 19.75 56.0369 19.15 57.0369 18.6C58.7869 17.65 60.9119 16.9 63.4119 16.35C65.9619 15.8 68.4619 15.525 70.9119 15.525ZM68.6619 46.05C70.8619 46.05 72.6369 45.325 73.9869 43.875C75.3369 42.375 76.0119 40.45 76.0119 38.1V36.825H74.7369C70.6869 36.825 67.8369 37.15 66.1869 37.8C64.5869 38.45 63.7869 39.625 63.7869 41.325C63.7869 42.725 64.2369 43.875 65.1369 44.775C66.0869 45.625 67.2619 46.05 68.6619 46.05Z" fill="black"/>
<path d="M113.504 15.525C117.904 15.525 121.179 16.825 123.329 19.425C125.479 21.975 126.554 25.85 126.554 31.05V48.375C126.554 50.025 126.029 51.325 124.979 52.275C123.979 53.225 122.604 53.7 120.854 53.7C119.104 53.7 117.729 53.225 116.729 52.275C115.729 51.325 115.229 50.025 115.229 48.375V31.575C115.229 29.075 114.754 27.25 113.804 26.1C112.904 24.95 111.479 24.375 109.529 24.375C107.179 24.375 105.279 25.125 103.829 26.625C102.429 28.125 101.729 30.125 101.729 32.625V48.375C101.729 50.025 101.229 51.325 100.229 52.275C99.2293 53.225 97.8543 53.7 96.1043 53.7C94.3543 53.7 92.9543 53.225 91.9043 52.275C90.9043 51.325 90.4043 50.025 90.4043 48.375V20.85C90.4043 19.3 90.9293 18.05 91.9793 17.1C93.0793 16.15 94.4793 15.675 96.1793 15.675C97.7293 15.675 98.9793 16.15 99.9293 17.1C100.929 18 101.429 19.175 101.429 20.625V21.675C102.729 19.675 104.404 18.15 106.454 17.1C108.554 16.05 110.904 15.525 113.504 15.525Z" fill="black"/>
<path d="M149.5 55.5C145.6 55.5 142.175 54.725 139.225 53.175C136.275 51.575 134 49.35 132.4 46.5C130.8 43.6 130 40.2 130 36.3C130 32.4 130.8 29.025 132.4 26.175C134 23.275 136.275 21.05 139.225 19.5C142.175 17.95 145.6 17.175 149.5 17.175C153.4 17.175 156.825 17.95 159.775 19.5C162.725 21.05 165 23.275 166.6 26.175C168.2 29.025 169 32.4 169 36.3C169 40.2 168.2 43.6 166.6 46.5C165 49.35 162.725 51.575 159.775 53.175C156.825 54.725 153.4 55.5 149.5 55.5ZM149.5 46.875C155 46.875 157.75 43.35 157.75 36.3C157.75 32.75 157.025 30.1 155.575 28.35C154.175 26.6 152.15 25.725 149.5 25.725C144 25.725 141.25 29.25 141.25 36.3C141.25 43.35 144 46.875 149.5 46.875Z" fill="#E81F1F"/>
<path d="M194.117 17.175C198.517 17.175 201.792 18.475 203.942 21.075C206.092 23.625 207.167 27.5 207.167 32.7V50.025C207.167 51.675 206.642 52.975 205.592 53.925C204.592 54.875 203.217 55.35 201.467 55.35C199.717 55.35 198.342 54.875 197.342 53.925C196.342 52.975 195.842 51.675 195.842 50.025V33.225C195.842 30.725 195.367 28.9 194.417 27.75C193.517 26.6 192.092 26.025 190.142 26.025C187.792 26.025 185.892 26.775 184.442 28.275C183.042 29.775 182.342 31.775 182.342 34.275V50.025C182.342 51.675 181.842 52.975 180.842 53.925C179.842 54.875 178.467 55.35 176.717 55.35C174.967 55.35 173.567 54.875 172.517 53.925C171.517 52.975 171.017 51.675 171.017 50.025V22.5C171.017 20.95 171.542 19.7 172.592 18.75C173.692 17.8 175.092 17.325 176.792 17.325C178.342 17.325 179.592 17.8 180.542 18.75C181.542 19.65 182.042 20.825 182.042 22.275V23.325C183.342 21.325 185.017 19.8 187.067 18.75C189.167 17.7 191.517 17.175 194.117 17.175Z" fill="#E81F1F"/>
<path d="M216.446 55.35C214.796 55.35 213.421 54.9 212.321 54C211.271 53.1 210.746 51.775 210.746 50.025V6.975C210.746 5.225 211.271 3.9 212.321 3C213.421 2.1 214.796 1.65 216.446 1.65C218.046 1.65 219.371 2.1 220.421 3C221.521 3.9 222.071 5.225 222.071 6.975V50.025C222.071 51.775 221.521 53.1 220.421 54C219.371 54.9 218.046 55.35 216.446 55.35Z" fill="#E81F1F"/>
<path d="M231.566 55.35C229.916 55.35 228.541 54.9 227.441 54C226.391 53.1 225.866 51.775 225.866 50.025V22.65C225.866 20.9 226.416 19.575 227.516 18.675C228.616 17.775 229.966 17.325 231.566 17.325C233.166 17.325 234.491 17.775 235.541 18.675C236.641 19.575 237.191 20.9 237.191 22.65V50.025C237.191 51.775 236.641 53.1 235.541 54C234.491 54.9 233.166 55.35 231.566 55.35ZM231.566 11.325C229.566 11.325 227.991 10.825 226.841 9.825C225.691 8.775 225.116 7.375 225.116 5.625C225.116 3.875 225.691 2.5 226.841 1.5C227.991 0.499998 229.566 0 231.566 0C233.516 0 235.066 0.524996 236.216 1.575C237.416 2.575 238.016 3.925 238.016 5.625C238.016 7.375 237.441 8.775 236.291 9.825C235.141 10.825 233.566 11.325 231.566 11.325Z" fill="#E81F1F"/>
<path d="M264.087 17.175C268.487 17.175 271.762 18.475 273.912 21.075C276.062 23.625 277.137 27.5 277.137 32.7V50.025C277.137 51.675 276.612 52.975 275.562 53.925C274.562 54.875 273.187 55.35 271.437 55.35C269.687 55.35 268.312 54.875 267.312 53.925C266.312 52.975 265.812 51.675 265.812 50.025V33.225C265.812 30.725 265.337 28.9 264.387 27.75C263.487 26.6 262.062 26.025 260.112 26.025C257.762 26.025 255.862 26.775 254.412 28.275C253.012 29.775 252.312 31.775 252.312 34.275V50.025C252.312 51.675 251.812 52.975 250.812 53.925C249.812 54.875 248.437 55.35 246.687 55.35C244.937 55.35 243.537 54.875 242.487 53.925C241.487 52.975 240.987 51.675 240.987 50.025V22.5C240.987 20.95 241.512 19.7 242.562 18.75C243.662 17.8 245.062 17.325 246.762 17.325C248.312 17.325 249.562 17.8 250.512 18.75C251.512 19.65 252.012 20.825 252.012 22.275V23.325C253.312 21.325 254.987 19.8 257.037 18.75C259.137 17.7 261.487 17.175 264.087 17.175Z" fill="#E81F1F"/>
<path d="M310.266 43.95C311.266 43.95 312.066 44.35 312.666 45.15C313.316 45.95 313.641 46.975 313.641 48.225C313.641 49.075 313.391 49.875 312.891 50.625C312.391 51.325 311.691 51.925 310.791 52.425C309.091 53.325 307.116 54.075 304.866 54.675C302.616 55.225 300.541 55.5 298.641 55.5C294.641 55.5 291.141 54.725 288.141 53.175C285.191 51.625 282.916 49.425 281.316 46.575C279.716 43.675 278.916 40.275 278.916 36.375C278.916 32.625 279.691 29.3 281.241 26.4C282.791 23.5 284.941 21.25 287.691 19.65C290.441 18 293.566 17.175 297.066 17.175C300.416 17.175 303.341 17.925 305.841 19.425C308.391 20.875 310.366 22.975 311.766 25.725C313.166 28.425 313.866 31.6 313.866 35.25C313.866 36.35 313.591 37.2 313.041 37.8C312.541 38.35 311.816 38.625 310.866 38.625H289.866C290.216 41.575 291.116 43.725 292.566 45.075C294.016 46.375 296.091 47.025 298.791 47.025C300.241 47.025 301.541 46.85 302.691 46.5C303.841 46.15 305.116 45.675 306.516 45.075C307.216 44.775 307.891 44.525 308.541 44.325C309.191 44.075 309.766 43.95 310.266 43.95ZM297.366 24.975C295.216 24.975 293.491 25.675 292.191 27.075C290.891 28.425 290.116 30.4 289.866 33H304.341C304.191 30.35 303.516 28.35 302.316 27C301.166 25.65 299.516 24.975 297.366 24.975Z" fill="#E81F1F"/>
<ellipse cx="148.5" cy="36.5" rx="10.5" ry="14.5" fill="#E81F1F"/>
<path d="M148.733 36.4237C146.601 34.1864 145.282 32.839 144.777 32.3814L143.851 31.5424C142.617 30.4237 142 29.2797 142 28.1102C142 27.6525 142.084 27.1949 142.252 26.7373C143.15 24.2458 144.861 23 147.386 23C148.508 23 149.518 23.2797 150.416 23.839C151.314 24.3983 152.295 25.339 153.361 26.661L156.307 30.3983C157.261 31.6186 157.934 32.7119 158.327 33.678C158.776 34.6949 159 35.7119 159 36.7288C159 37.8983 158.86 38.8136 158.579 39.4746C158.299 40.1864 157.766 41.0508 156.98 42.0678L154.624 44.5085L151.426 47.7881C150.023 49.1102 149.097 49.822 148.649 49.9237C148.592 49.9746 148.34 50 147.891 50C146.152 50 144.721 49.5678 143.599 48.7034C142.533 47.839 142 46.6441 142 45.1186C142 44.1017 142.224 43.2373 142.673 42.5254C143.234 41.6102 144.356 40.4407 146.04 39.0169L148.733 36.4237Z" fill="white"/>
</svg>
