<svg width="142" height="36" viewBox="0 0 142 36" fill="none" xmlns="http://www.w3.org/2000/svg">
<path d="M53.57 23.7447H46.4816C46.3001 23.7447 46.1036 23.7247 45.8919 23.6849C45.6857 23.64 45.4791 23.5727 45.2725 23.4829C45.0709 23.3931 44.877 23.2784 44.6905 23.1388C44.504 22.9942 44.3377 22.8221 44.1918 22.6227C44.0506 22.4182 43.9372 22.1839 43.8517 21.9196C43.7662 21.6503 43.7232 21.3486 43.7232 21.0145V15.7485C43.7232 15.569 43.7434 15.377 43.7836 15.1725C43.8289 14.9631 43.897 14.7587 43.9879 14.5592C44.0784 14.3547 44.1968 14.1603 44.3427 13.9757C44.4889 13.7912 44.6627 13.6291 44.8643 13.4895C45.0709 13.3449 45.3077 13.2302 45.5747 13.1454C45.8416 13.0607 46.1438 13.0183 46.4816 13.0183H53.57V14.9631H46.4816C46.2247 14.9631 46.0281 15.0304 45.8919 15.1651C45.7561 15.2997 45.688 15.4992 45.688 15.7635V21.0145C45.688 21.2638 45.7561 21.4583 45.8919 21.5979C46.0332 21.7326 46.2297 21.7999 46.4816 21.7999H53.57V23.7447ZM62.3136 17.6035H57.8927C57.6257 17.6035 57.4241 17.6709 57.2883 17.8055C57.1521 17.9352 57.084 18.1272 57.084 18.3815V23.7447H55.1192V18.3815C55.1192 18.0474 55.1622 17.7482 55.2477 17.4839C55.3332 17.2196 55.4466 16.9877 55.5878 16.7882C55.734 16.5838 55.9 16.4118 56.0865 16.2721C56.273 16.1275 56.4669 16.0103 56.6685 15.9205C56.8751 15.8308 57.0817 15.766 57.2883 15.7261C57.4996 15.6812 57.6961 15.6587 57.8776 15.6587H62.3136V17.6035ZM72.372 18.3366C72.372 18.6059 72.324 18.8976 72.2285 19.2118C72.1325 19.521 71.9766 19.8102 71.7599 20.0795C71.5483 20.3438 71.2685 20.5657 70.9211 20.7452C70.5783 20.9247 70.1604 21.0145 69.6667 21.0145H66.1225V19.1669H69.6667C69.9336 19.1669 70.1403 19.0871 70.2861 18.9275C70.4324 18.763 70.5055 18.561 70.5055 18.3216C70.5055 18.0673 70.4223 17.8678 70.2559 17.7232C70.0946 17.5786 69.8984 17.5063 69.6667 17.5063H66.1225C65.8551 17.5063 65.6489 17.5886 65.5026 17.7532C65.3564 17.9127 65.2836 18.1122 65.2836 18.3516V21.0668C65.2836 21.3261 65.3641 21.5281 65.5255 21.6727C65.6914 21.8173 65.8957 21.8896 66.1376 21.8896H69.6667V23.7447H66.1225C65.8501 23.7447 65.5556 23.6973 65.238 23.6026C64.9257 23.5078 64.6336 23.3557 64.3616 23.1463C64.0946 22.9319 63.8702 22.6551 63.6887 22.316C63.5077 21.9719 63.4167 21.5555 63.4167 21.0668V18.3366C63.4167 18.0673 63.4647 17.7781 63.5603 17.4689C63.6562 17.1548 63.8098 16.8655 64.0215 16.6013C64.2382 16.3319 64.5175 16.1076 64.8603 15.928C65.2078 15.7485 65.6284 15.6587 66.1225 15.6587H69.6667C69.9387 15.6587 70.2308 15.7061 70.543 15.8009C70.8607 15.8956 71.1528 16.0502 71.4198 16.2647C71.6918 16.4741 71.9186 16.7508 72.1 17.0949C72.2815 17.434 72.372 17.8479 72.372 18.3366ZM82.6572 21.0145C82.6572 21.3486 82.6142 21.6503 82.5287 21.9196C82.4432 22.1839 82.3298 22.4182 82.1886 22.6227C82.0474 22.8221 81.8837 22.9942 81.6972 23.1388C81.5111 23.2784 81.3145 23.3931 81.1079 23.4829C80.9063 23.5727 80.6997 23.64 80.4881 23.6849C80.2818 23.7247 80.0853 23.7447 79.8988 23.7447H76.3546C76.0168 23.7447 75.7146 23.7023 75.4477 23.6175C75.1807 23.5327 74.9439 23.4205 74.7373 23.2809C74.5357 23.1363 74.362 22.9718 74.2161 22.7872C74.0749 22.6027 73.9588 22.4107 73.8682 22.2113C73.7777 22.0068 73.7096 21.8024 73.6643 21.5979C73.6241 21.3885 73.6036 21.194 73.6036 21.0145V18.3815C73.6036 17.8828 73.6945 17.4615 73.876 17.1174C74.0621 16.7683 74.2915 16.4865 74.5635 16.2721C74.8406 16.0527 75.1404 15.8956 75.4627 15.8009C75.785 15.7061 76.0826 15.6587 76.3546 15.6587H79.8988V17.6035H76.3697C76.1077 17.6035 75.9089 17.6709 75.7727 17.8055C75.6365 17.9352 75.5688 18.1272 75.5688 18.3815V20.9995C75.5688 21.2638 75.6342 21.4633 75.7649 21.5979C75.9011 21.7326 76.0977 21.7999 76.3546 21.7999H79.8988C80.1658 21.7999 80.3647 21.7326 80.4958 21.5979C80.627 21.4633 80.6924 21.2688 80.6924 21.0145V12.2403H82.6572V21.0145ZM86.5264 13.9982H84.5616V12.2403H86.5264V13.9982ZM86.5264 23.7447H84.5616V15.6587H86.5264V23.7447ZM95.8442 17.6035H92.4134V23.7447H90.4258V17.6035H87.8713V15.6587H90.4258V13.0183H92.4134V15.6587H95.8442V17.6035ZM106.144 24.5226C106.144 24.8567 106.101 25.1559 106.016 25.4202C105.93 25.6895 105.817 25.9239 105.676 26.1233C105.535 26.3278 105.371 26.4998 105.185 26.6395C104.998 26.7841 104.802 26.9013 104.595 26.991C104.394 27.0808 104.19 27.1456 103.983 27.1855C103.776 27.2304 103.58 27.2528 103.394 27.2528H99.8496V25.308H103.394C103.656 25.308 103.852 25.2407 103.983 25.1061C104.114 24.9714 104.18 24.7769 104.18 24.5226V15.6587H106.144V24.5226ZM103.394 23.7447H99.8496C99.5672 23.7447 99.265 23.6973 98.9427 23.6026C98.625 23.5078 98.3278 23.3532 98.0508 23.1388C97.7738 22.9194 97.5443 22.6376 97.3632 22.2935C97.1818 21.9445 97.0912 21.5181 97.0912 21.0145V15.6587H99.056V21.0145C99.056 21.2688 99.1241 21.4633 99.2599 21.5979C99.3961 21.7326 99.5973 21.7999 99.8647 21.7999H103.394V23.7447Z" fill="white"/>
<path d="M33.4687 7.46809H11.0272C10.1725 7.46809 9.47956 8.15395 9.47956 9V23.5532C9.47956 24.3992 10.1725 25.0851 11.0272 25.0851H33.4687C34.3234 25.0851 35.0163 24.3992 35.0163 23.5532V9C35.0163 8.15395 34.3234 7.46809 33.4687 7.46809Z" stroke="white" stroke-width="1.54768"/>
<path d="M28.6857 10H6.31429C5.03614 10 4 11.0208 4 12.28V26.72C4 27.9792 5.03614 29 6.31429 29H28.6857C29.9639 29 31 27.9792 31 26.72V12.28C31 11.0208 29.9639 10 28.6857 10Z" fill="white"/>
<path d="M14.3262 24.7949V19.9277H13.3555V19.1279H14.3262V18.3145H13.3555V17.5146H14.3262V15.3408H17.8877C19.3984 15.3408 20.5059 16.2158 20.916 17.5146H21.8525V18.3145H21.0732C21.0869 18.4307 21.0869 18.5537 21.0869 18.6768V18.6904C21.0869 18.8408 21.0801 18.9844 21.0664 19.1279H21.8525V19.9277H20.9023C20.4717 21.2402 19.3438 22.1289 17.8193 22.1289H16.0557V24.7949H14.3262ZM16.0557 16.708V17.583H19.1113C18.8037 17.002 18.2158 16.708 17.4434 16.708H16.0557ZM19.3506 18.6836C19.3506 18.5264 19.3438 18.3828 19.3232 18.2461H16.0557V19.1963H19.3164C19.3438 19.0391 19.3506 18.875 19.3506 18.6973V18.6836ZM16.0557 20.7754H17.4365C18.209 20.7754 18.79 20.4541 19.1045 19.8594H16.0557V20.7754Z" fill="#3C3C3C"/>
<path d="M107.898 23.0625C107.898 22.7812 107.997 22.5417 108.195 22.3438C108.393 22.1458 108.633 22.0469 108.914 22.0469C109.201 22.0469 109.44 22.1458 109.633 22.3438C109.831 22.5365 109.93 22.776 109.93 23.0625C109.93 23.349 109.831 23.5911 109.633 23.7891C109.44 23.9818 109.201 24.0781 108.914 24.0781C108.633 24.0781 108.393 23.9792 108.195 23.7812C107.997 23.5833 107.898 23.3438 107.898 23.0625ZM110.787 17.5547C110.787 17.1016 110.949 16.7135 111.272 16.3906C111.595 16.0677 111.983 15.9062 112.436 15.9062H115.303C115.84 15.9062 116.329 16.0391 116.772 16.3047C117.215 16.5651 117.566 16.9141 117.827 17.3516C118.092 17.7891 118.225 18.276 118.225 18.8125V21.0781C118.225 21.6146 118.092 22.1042 117.827 22.5469C117.566 22.9896 117.215 23.3438 116.772 23.6094C116.329 23.8698 115.84 24 115.303 24H113.373V22.3516H115.303C115.657 22.3516 115.957 22.2266 116.202 21.9766C116.452 21.7214 116.577 21.4167 116.577 21.0625V18.8281C116.577 18.474 116.452 18.1745 116.202 17.9297C115.957 17.6797 115.657 17.5547 115.303 17.5547H112.436V27.0156H110.787V17.5547ZM119.2 12.8906H120.848V15.9062H123.395C123.958 15.9062 124.468 16.0391 124.927 16.3047C125.39 16.5651 125.757 16.9167 126.028 17.3594C126.304 17.7969 126.442 18.2839 126.442 18.8203V24H124.794V18.8438C124.794 18.5 124.653 18.2005 124.372 17.9453C124.096 17.6849 123.77 17.5547 123.395 17.5547H120.848V24H119.2V12.8906Z" fill="#3C3C3C"/>
</svg>
